<svg width="48" height="49" viewBox="0 0 48 49" fill="none" xmlns="http://www.w3.org/2000/svg">
<circle cx="24" cy="24.488" r="24" fill="#FF5555"/>
<path d="M25.9998 33.488H21.9998M29.9998 20.488C29.9998 18.8967 29.3676 17.3706 28.2424 16.2454C27.1172 15.1202 25.5911 14.488 23.9998 14.488C22.4085 14.488 20.8824 15.1202 19.7571 16.2454C18.6319 17.3706 17.9998 18.8967 17.9998 20.488C17.9998 23.5782 17.2202 25.694 16.3494 27.0934C15.6149 28.2739 15.2476 28.8641 15.2611 29.0288C15.276 29.2111 15.3146 29.2806 15.4616 29.3896C15.5942 29.488 16.1924 29.488 17.3886 29.488H30.6109C31.8072 29.488 32.4053 29.488 32.538 29.3896C32.6849 29.2806 32.7235 29.2111 32.7384 29.0288C32.7519 28.8641 32.3846 28.2739 31.6501 27.0935C30.7793 25.694 29.9998 23.5782 29.9998 20.488Z" stroke="white" stroke-width="2" stroke-linecap="round" stroke-linejoin="round"/>
</svg>
